<svg width="256" height="256" viewBox="0 0 256 256" xmlns="http://www.w3.org/2000/svg">
  <rect width="256" height="256" rx="32" fill="#111111"/>

  <!-- MIRA -->
  <circle cx="56" cy="80" r="32" fill="#FF007F"/>
  <circle cx="56" cy="120" r="28" fill="#F5CBA7"/>
  <path d="M44 116 Q48 108 52 116" stroke="#000" stroke-width="3" fill="none"/>
  <path d="M60 116 Q64 108 68 116" stroke="#000" stroke-width="3" fill="none"/>
  <rect x="44" y="140" width="24" height="32" rx="4" fill="#FF4F4F"/>
  <text x="56" y="160" font-size="10" font-family="Arial" fill="#FFFFFF" text-anchor="middle">MIRA</text>
  <line x1="56" y1="140" x2="56" y2="128" stroke="#FFD700" stroke-width="3"/>

  <!-- RUMI -->
  <circle cx="128" cy="80" r="32" fill="#A020F0"/>
  <circle cx="128" cy="120" r="28" fill="#F5CBA7"/>
  <path d="M116 116 Q120 108 124 116" stroke="#000" stroke-width="3" fill="none"/>
  <path d="M132 116 Q136 108 140 116" stroke="#000" stroke-width="3" fill="none"/>
  <rect x="116" y="140" width="24" height="32" rx="4" fill="#5D5DFF"/>
  <text x="128" y="160" font-size="10" font-family="Arial" fill="#FFFFFF" text-anchor="middle">RUMI</text>
  <line x1="128" y1="140" x2="128" y2="128" stroke="#FFD700" stroke-width="3"/>

  <!-- ZOEY -->
  <circle cx="200" cy="80" r="32" fill="#00C2A8"/>
  <circle cx="200" cy="120" r="28" fill="#F5CBA7"/>
  <path d="M188 116 Q192 108 196 116" stroke="#000" stroke-width="3" fill="none"/>
  <path d="M204 116 Q208 108 212 116" stroke="#000" stroke-width="3" fill="none"/>
  <rect x="188" y="140" width="24" height="32" rx="4" fill="#00A0A0"/>
  <text x="200" y="160" font-size="10" font-family="Arial" fill="#FFFFFF" text-anchor="middle">ZOEY</text>
  <line x1="200" y1="140" x2="200" y2="128" stroke="#FFD700" stroke-width="3"/>
</svg>
